<?xml version="1.0" encoding="UTF-8" standalone="no"?>
<svg
   height="100%"
   style="fill-rule:evenodd;clip-rule:evenodd;stroke-linejoin:round;stroke-miterlimit:1.41421;"
   version="1.1"
   viewBox="0 0 512 512"
   width="100%"
   xml:space="preserve"
   id="svg12"
   sodipodi:docname="io.github.tobagin.keysmith.svg"
   inkscape:version="1.4.2 (ebf0e940d0, 2025-05-08)"
   xmlns:inkscape="http://www.inkscape.org/namespaces/inkscape"
   xmlns:sodipodi="http://sodipodi.sourceforge.net/DTD/sodipodi-0.dtd"
   xmlns="http://www.w3.org/2000/svg"
   xmlns:svg="http://www.w3.org/2000/svg"><sodipodi:namedview
     id="namedview12"
     pagecolor="#ffffff"
     bordercolor="#000000"
     borderopacity="0.25"
     inkscape:showpageshadow="2"
     inkscape:pageopacity="0.0"
     inkscape:pagecheckerboard="0"
     inkscape:deskcolor="#d1d1d1"
     inkscape:zoom="0.87109375"
     inkscape:cx="256"
     inkscape:cy="255.42601"
     inkscape:window-width="2544"
     inkscape:window-height="872"
     inkscape:window-x="26"
     inkscape:window-y="23"
     inkscape:window-maximized="0"
     inkscape:current-layer="svg12" /><rect
     height="359.469"
     id="_22.-SSH"
     style="fill:none;"
     width="451.858"
     x="0.6"
     y="0.628" /><g
     id="g12"
     transform="translate(28.105,70.670361)"><path
       d="m 434.395,53.931 c 0,-8.279 -6.721,-15 -15,-15 h -371 c -8.279,0 -15,6.721 -15,15 v 236 c 0,8.279 6.721,15 15,15 h 371 c 8.279,0 15,-6.721 15,-15 z"
       id="Rounded-Rectangle-1-copy"
       style="fill:#cce6ff;fill-opacity:0.258824" /><path
       d="m 422.395,38.931 c 0,-8.279 -6.721,-15 -15,-15 h -371 c -8.279,0 -15,6.721 -15,15 v 236 c 0,8.279 6.721,15 15,15 h 371 c 8.279,0 15,-6.721 15,-15 z"
       id="Rounded-Rectangle-1"
       style="fill:url(#_Linear1)" /><path
       d="m 400.395,71.931 h -358 v 189 c 0,6.071 4.929,11 11,11 h 339 c 4.415,0 8,-3.585 8,-8 z"
       id="Rounded-Rectangle-2"
       style="fill:url(#_Linear2)" /><circle
       cx="73.394997"
       cy="46.931"
       id="Ellipse-1"
       r="8"
       style="fill:#0084ff" /><circle
       cx="50.395"
       cy="46.931"
       id="Ellipse-1-copy"
       r="8"
       style="fill:#55d7ff" /><circle
       cx="96.394997"
       cy="46.931"
       id="Ellipse-1-copy-2"
       r="8"
       style="fill:#0bbc00" /><path
       d="m 337.395,46.931 c 0,-4.415 -3.585,-8 -8,-8 h -145 c -4.415,0 -8,3.585 -8,8 0,4.415 3.585,8 8,8 h 145 c 4.415,0 8,-3.585 8,-8 z"
       id="Rounded-Rectangle-3"
       style="fill:#e5f1ff" /><path
       d="m 400.395,46.931 c 0,-4.415 -3.585,-8 -8,-8 h -9 c -4.415,0 -8,3.585 -8,8 0,4.415 3.585,8 8,8 h 9 c 4.415,0 8,-3.585 8,-8 z"
       id="Rounded-Rectangle-3-copy"
       style="fill:#e5f1ff" /><path
       d="m 369.395,46.931 c 0,-4.415 -3.585,-8 -8,-8 h -9 c -4.415,0 -8,3.585 -8,8 0,4.415 3.585,8 8,8 h 9 c 4.415,0 8,-3.585 8,-8 z"
       id="Rounded-Rectangle-3-copy-2"
       style="fill:#e5f1ff" /><path
       d="m 344.39,177.203 c -22.213,0 -40.283,18.07 -40.282,40.283 0,15.173 8.545,28.988 21.973,35.846 l 0.002,64.158 c 0,0.972 0.385,1.902 1.073,2.59 l 14.649,14.65 c 1.432,1.431 3.748,1.431 5.179,0 l 14.649,-14.649 c 0.688,-0.688 1.072,-1.618 1.072,-2.589 l -0.003,-7.326 c 0,-1.118 -0.51,-2.175 -1.388,-2.871 l -4.39,-3.479 4.938,-5.966 c 1.123,-1.355 1.123,-3.313 0,-4.668 l -4.939,-5.966 4.393,-3.477 c 0.829,-0.632 1.32,-1.613 1.383,-2.657 0.058,-1.045 -0.329,-2.064 -1.067,-2.802 l -4.822,-4.822 4.734,-4.734 c 0.688,-0.687 1.072,-1.618 1.072,-2.589 l 0.087,-13.194 c 13.428,-6.852 21.978,-20.275 21.972,-35.453 0,-22.213 -18.072,-40.284 -40.285,-40.285 z m 10.986,28.637 c 0,6.059 -4.925,10.985 -10.985,10.985 -6.059,0 -10.985,-4.926 -10.985,-10.985 0,-6.059 4.926,-10.985 10.985,-10.985 6.059,0 10.985,4.927 10.985,10.985 z"
       id="Forma-1"
       style="fill:none;stroke:#fefeff;stroke-width:22px" /><path
       d="m 344.39,177.203 c -22.213,0 -40.283,18.07 -40.282,40.283 0,15.173 8.545,28.988 21.973,35.846 l 0.002,64.158 c 0,0.972 0.385,1.902 1.073,2.59 l 14.649,14.65 c 1.432,1.431 3.748,1.431 5.179,0 l 14.649,-14.649 c 0.688,-0.688 1.072,-1.618 1.072,-2.589 l -0.003,-7.326 c 0,-1.118 -0.51,-2.175 -1.388,-2.871 l -4.39,-3.479 4.938,-5.966 c 1.123,-1.355 1.123,-3.313 0,-4.668 l -4.939,-5.966 4.393,-3.477 c 0.829,-0.632 1.32,-1.613 1.383,-2.657 0.058,-1.045 -0.329,-2.064 -1.067,-2.802 l -4.822,-4.822 4.734,-4.734 c 0.688,-0.687 1.072,-1.618 1.072,-2.589 l 0.087,-13.194 c 13.428,-6.852 21.978,-20.275 21.972,-35.453 0,-22.213 -18.072,-40.284 -40.285,-40.285 z m 10.986,28.637 c 0,6.059 -4.925,10.985 -10.985,10.985 -6.059,0 -10.985,-4.926 -10.985,-10.985 0,-6.059 4.926,-10.985 10.985,-10.985 6.059,0 10.985,4.927 10.985,10.985 z"
       style="fill:url(#_Linear3);fill-rule:nonzero"
       id="path1" /><path
       d="m 345.394,181.389 c 2.623,0.245 3.557,5.215 -0.149,5.355 -1.806,0.009 -2.334,0.064 -3.485,0.193 -9.573,1.073 -18.437,6.895 -23.103,15.432 0,0 -1.11,1.544 -2.64,1.379 -1.755,-0.19 -3,-2.096 -2.063,-3.95 0.826,-1.512 1.067,-1.865 1.651,-2.739 6.396,-9.572 17.685,-15.53 29.31,-15.673 0.24,-0.002 0.239,-0.004 0.479,0.003 z"
       style="fill:#ffffff;fill-opacity:0.376471;fill-rule:nonzero"
       id="path2" /><path
       d="m 312.737,211.148 c 0.459,0.029 0.608,0.08 0.874,0.186 2.234,0.882 1.426,4.556 1.824,7.928 0.228,1.937 0.663,3.848 1.279,5.701 0,0 0.239,2.7 -1.645,3.37 -1.471,0.523 -3.051,-0.461 -3.595,-2.15 -1.313,-4.154 -2.279,-8.654 -1.48,-12.857 0.242,-1.274 1.036,-2.212 2.743,-2.178 z"
       style="fill:#ffffff;fill-opacity:0.376471;fill-rule:nonzero"
       id="path3" /><path
       d="m 368.065,236.944 c 1.835,0.209 1.809,0.729 2.181,1.465 0.501,0.994 0.462,2.029 -0.455,3.057 -1.122,1.175 -1.38,1.396 -2.086,2.026 -8.588,7.654 -20.96,10.648 -32.279,7.824 -1.678,-0.419 -3.132,-2.002 -2.394,-3.776 0.501,-1.206 1.647,-1.906 3.157,-1.564 1.75,0.461 2.271,0.542 3.415,0.716 9.506,1.441 19.586,-1.885 26.31,-8.927 0,0 1.84,-0.835 2.151,-0.821 z"
       style="fill:#003c90;fill-opacity:0.482353;fill-rule:nonzero"
       id="path4" /><path
       d="m 376.433,213.609 c 2.401,0.157 2.704,3.386 2.589,6.046 -0.127,2.941 -0.643,5.864 -1.52,8.667 -0.534,1.71 -2.159,3.175 -3.911,2.375 -2.392,-1.092 -0.731,-4.848 -0.214,-8.273 0.298,-1.977 0.381,-3.982 0.261,-5.977 0,0 0.244,-2.899 2.795,-2.838 z"
       style="fill:#003c90;fill-opacity:0.482353;fill-rule:nonzero"
       id="path5" /><path
       d="m 341.395,327.931 v -71 l -11,-1 v 59"
       id="Shape-2"
       style="fill:#70d1ff;fill-opacity:0.701961" /><g
       id="_-_"><path
         d="m 192.796,162.415 c 0,-2.928 -1.83,-5.856 -4.636,-7.076 l -44.042,-19.764 c -0.61,-0.244 -1.342,-0.366 -1.952,-0.366 -2.684,0 -5.368,2.074 -5.246,5.246 0,1.952 1.098,3.904 3.172,4.758 l 40.87,17.446 -40.87,17.324 c -1.952,0.854 -3.05,2.684 -3.05,4.758 0,3.05 2.562,5.124 5.124,5.124 0.61,0 1.342,-0.122 1.952,-0.366 l 44.042,-19.642 c 2.806,-1.22 4.636,-4.148 4.636,-7.442 z"
         style="fill:#00c400;fill-rule:nonzero"
         id="path6" /><path
         d="m 265.508,213.411 c 0,-2.806 -2.318,-5.124 -5.002,-5.124 h -60.878 c -2.806,0 -5.124,2.318 -5.124,5.124 0,2.928 2.318,5.246 5.124,5.246 h 60.878 c 2.684,0 5.002,-2.318 5.002,-5.246 z"
         style="fill:#00c400;fill-rule:nonzero"
         id="path7" /></g></g><defs
     id="defs12"><linearGradient
       gradientTransform="matrix(0,256.206,-256.206,0,34.8807,151.947)"
       gradientUnits="userSpaceOnUse"
       id="_Linear1"
       x1="0"
       x2="1"
       y1="0"
       y2="0"><stop
         offset="0"
         style="stop-color:#cce6ff;stop-opacity:1"
         id="stop7" /><stop
         offset="1"
         style="stop-color:#1d98ff;stop-opacity:1"
         id="stop8" /></linearGradient><linearGradient
       gradientTransform="matrix(0,304.845,-304.845,0,135.869,90.0659)"
       gradientUnits="userSpaceOnUse"
       id="_Linear2"
       x1="0"
       x2="1"
       y1="0"
       y2="0"><stop
         offset="0"
         style="stop-color:#fff;stop-opacity:1"
         id="stop9" /><stop
         offset="1"
         style="stop-color:#d0e4fc;stop-opacity:1"
         id="stop10" /></linearGradient><linearGradient
       gradientTransform="matrix(89.1084,167.851,-167.851,89.1084,330.259,247.55)"
       gradientUnits="userSpaceOnUse"
       id="_Linear3"
       x1="0"
       x2="1"
       y1="0"
       y2="0"><stop
         offset="0"
         style="stop-color:#0084ff;stop-opacity:1"
         id="stop11" /><stop
         offset="1"
         style="stop-color:#004fb8;stop-opacity:1"
         id="stop12" /></linearGradient></defs></svg>
