<?xml version="1.0" encoding="UTF-8" standalone="no"?>
<svg
   height="16px"
   viewBox="0 0 16 16"
   width="16px"
   version="1.1"
   id="svg1"
   sodipodi:docname="io.github.tobagin.keysmith-rerun-symbolic.svg"
   inkscape:version="1.4.2 (ebf0e940d0, 2025-05-08)"
   xmlns:inkscape="http://www.inkscape.org/namespaces/inkscape"
   xmlns:sodipodi="http://sodipodi.sourceforge.net/DTD/sodipodi-0.dtd"
   xmlns="http://www.w3.org/2000/svg"
   xmlns:svg="http://www.w3.org/2000/svg">
  <defs
     id="defs1" />
  <sodipodi:namedview
     id="namedview1"
     pagecolor="#ffffff"
     bordercolor="#000000"
     borderopacity="0.25"
     inkscape:showpageshadow="2"
     inkscape:pageopacity="0.0"
     inkscape:pagecheckerboard="0"
     inkscape:deskcolor="#d1d1d1"
     inkscape:zoom="45.5625"
     inkscape:cx="7.9890261"
     inkscape:cy="8"
     inkscape:window-width="1268"
     inkscape:window-height="924"
     inkscape:window-x="26"
     inkscape:window-y="23"
     inkscape:window-maximized="0"
     inkscape:current-layer="svg1" />
  <path
     d="m 8.5937502,1 c 0.613281,0.00781 1.234375,0.089844 1.8476558,0.253906 C 13.714844,2.132812 16,5.109375 16,8.5 16,11.890625 13.714844,14.867188 10.441406,15.742188 7.1679692,16.621094 3.6992192,15.183594 2.0039062,12.25 c -0.277344,-0.480469 -0.109375,-1.089844 0.367188,-1.367188 0.476562,-0.273437 1.089844,-0.109374 1.367187,0.367188 1.246094,2.160156 3.777344,3.207031 6.1875,2.5625 C 12.332031,13.167969 14,10.992188 14,8.5 14,6.003906 12.332031,3.832031 9.9257812,3.1875 7.5156252,2.542969 4.9843752,3.589844 3.7382812,5.75 c -0.058593,0.085938 -0.125,0.164062 -0.203125,0.226562 L 3.5546882,5.992188 3.5625002,6 h 1.4375 c 0.550781,0 1,0.449219 1,1 0,0 0,1 -1,1 H 2.3288298e-7 V 3 c 0,0 -0.003906002883,-1 0.99999996711702,-1 0.550781,0 1,0.449219 1,1 v 1.6875 l 0.015625,0.011719 0.011719,0.011719 C 3.3046882,2.53125 5.5585942,1.191406 7.9804692,1.019531 8.1835942,1.003906 8.3867192,1 8.5937502,1 Z m 0,0"
     fill="#2e3436"
     id="path1" />
  <path
     d="m 6.8884774,6.2513777 v 5.0174503 h 0.501745 c 0.088197,0 0.1744346,-0.0196 0.2508725,-0.06272 L 11.15331,9.1991324 c 0.154837,-0.086237 0.235193,-0.262632 0.235193,-0.4390265 0,-0.1763952 -0.08035,-0.3527896 -0.235193,-0.439027 L 7.6410949,6.3140958 C 7.564657,6.2709769 7.4784196,6.2513777 7.3902224,6.2513777 Z m 0,0"
     fill="#222222"
     id="path1-5"
     style="stroke-width:0.501745;fill:#2e3436;fill-opacity:1" />
</svg>
