<?xml version="1.0" encoding="UTF-8" standalone="no"?>
<!-- Uploaded to: SVG Repo, www.svgrepo.com, Generator: SVG Repo Mixer Tools -->

<svg
   width="800px"
   height="800px"
   viewBox="0 0 24 24"
   fill="none"
   version="1.1"
   id="svg1"
   sodipodi:docname="io.github.tobagin.keysmith-emergency-vault-symbolic.svg"
   inkscape:version="1.4.2 (ebf0e940d0, 2025-05-08)"
   xmlns:inkscape="http://www.inkscape.org/namespaces/inkscape"
   xmlns:sodipodi="http://sodipodi.sourceforge.net/DTD/sodipodi-0.dtd"
   xmlns="http://www.w3.org/2000/svg"
   xmlns:svg="http://www.w3.org/2000/svg">
  <defs
     id="defs1" />
  <sodipodi:namedview
     id="namedview1"
     pagecolor="#ffffff"
     bordercolor="#000000"
     borderopacity="0.25"
     inkscape:showpageshadow="2"
     inkscape:pageopacity="0.0"
     inkscape:pagecheckerboard="0"
     inkscape:deskcolor="#d1d1d1"
     inkscape:zoom="0.64435105"
     inkscape:cx="377.12362"
     inkscape:cy="432.21781"
     inkscape:window-width="1268"
     inkscape:window-height="924"
     inkscape:window-x="26"
     inkscape:window-y="23"
     inkscape:window-maximized="0"
     inkscape:current-layer="svg1" />
  <path
     d="m 4.8269318,22.760998 h 3.5865341 m 7.1730681,0 h 3.586534 M 18.575313,5.426083 v 9.564091 M 1.2403978,5.0674296 V 15.348827 c 0,1.339093 0,2.008698 0.2606095,2.520138 0.2292274,0.449871 0.595006,0.815698 1.0449128,1.044877 0.5114636,0.260621 1.1810098,0.260621 2.520114,0.260621 H 18.933966 c 1.339091,0 2.008698,0 2.520138,-0.260621 0.449871,-0.229179 0.815698,-0.595006 1.044876,-1.044877 0.260622,-0.51144 0.260622,-1.181045 0.260622,-2.520138 V 5.0674296 c 0,-1.3390922 0,-2.0086504 -0.260622,-2.5201141 C 22.269802,2.0974208 21.903975,1.7316421 21.454104,1.5024028 20.942664,1.2417933 20.273057,1.2417933 18.933966,1.2417933 H 5.0660341 c -1.3390922,0 -2.0086504,0 -2.520114,0.2606095 C 2.0960253,1.7316301 1.7302347,2.0974088 1.5010073,2.5473155 1.2403978,3.0587792 1.2403978,3.7283254 1.2403978,5.0674296 Z M 11.402244,10.208128 c 0,1.650642 -1.338136,2.988779 -2.9887781,2.988779 -1.6506545,0 -2.9887784,-1.338137 -2.9887784,-2.988779 0,-1.650654 1.3381239,-2.988778 2.9887784,-2.988778 1.6506421,0 2.9887781,1.338124 2.9887781,2.988778 z"
     stroke="currentColor"
     stroke-width="2.39102"
     stroke-linecap="round"
     stroke-linejoin="round"
     id="path1" />
</svg>
