<?xml version="1.0"?><!DOCTYPE svg  PUBLIC '-//W3C//DTD SVG 1.1//EN'  'http://www.w3.org/Graphics/SVG/1.1/DTD/svg11.dtd'><svg height="100%" style="fill-rule:evenodd;clip-rule:evenodd;stroke-linejoin:round;stroke-miterlimit:1.41421;" version="1.1" viewBox="0 -46 453 453" width="100%" xml:space="preserve" xmlns="http://www.w3.org/2000/svg" xmlns:serif="http://www.serif.com/" xmlns:xlink="http://www.w3.org/1999/xlink"><rect height="359.469" id="_22.-SSH" style="fill:none;" width="451.858" x="0.6" y="0.628"/><path d="M434.395,53.931c0,-8.279 -6.721,-15 -15,-15l-371,0c-8.279,0 -15,6.721 -15,15l0,236c0,8.279 6.721,15 15,15l371,0c8.279,0 15,-6.721 15,-15l0,-236Z" id="Rounded-Rectangle-1-copy" style="fill:#cce6ff;fill-opacity:0.258824;"/><path d="M422.395,38.931c0,-8.279 -6.721,-15 -15,-15l-371,0c-8.279,0 -15,6.721 -15,15l0,236c0,8.279 6.721,15 15,15l371,0c8.279,0 15,-6.721 15,-15l0,-236Z" id="Rounded-Rectangle-1" style="fill:url(#_Linear1);"/><path d="M400.395,71.931l-358,0l0,189c0,6.071 4.929,11 11,11l339,0c4.415,0 8,-3.585 8,-8l0,-192Z" id="Rounded-Rectangle-2" style="fill:url(#_Linear2);"/><circle cx="73.395" cy="46.931" id="Ellipse-1" r="8" style="fill:#0084ff;"/><circle cx="50.395" cy="46.931" id="Ellipse-1-copy" r="8" style="fill:#55d7ff;"/><circle cx="96.395" cy="46.931" id="Ellipse-1-copy-2" r="8" style="fill:#0bbc00;"/><path d="M337.395,46.931c0,-4.415 -3.585,-8 -8,-8l-145,0c-4.415,0 -8,3.585 -8,8c0,4.415 3.585,8 8,8l145,0c4.415,0 8,-3.585 8,-8Z" id="Rounded-Rectangle-3" style="fill:#e5f1ff;"/><path d="M400.395,46.931c0,-4.415 -3.585,-8 -8,-8l-9,0c-4.415,0 -8,3.585 -8,8c0,4.415 3.585,8 8,8l9,0c4.415,0 8,-3.585 8,-8Z" id="Rounded-Rectangle-3-copy" style="fill:#e5f1ff;"/><path d="M369.395,46.931c0,-4.415 -3.585,-8 -8,-8l-9,0c-4.415,0 -8,3.585 -8,8c0,4.415 3.585,8 8,8l9,0c4.415,0 8,-3.585 8,-8Z" id="Rounded-Rectangle-3-copy-2" style="fill:#e5f1ff;"/><path d="M344.39,177.203c-22.213,0 -40.283,18.07 -40.282,40.283c0,15.173 8.545,28.988 21.973,35.846l0.002,64.158c0,0.972 0.385,1.902 1.073,2.59l14.649,14.65c1.432,1.431 3.748,1.431 5.179,0l14.649,-14.649c0.688,-0.688 1.072,-1.618 1.072,-2.589l-0.003,-7.326c0,-1.118 -0.51,-2.175 -1.388,-2.871l-4.39,-3.479l4.938,-5.966c1.123,-1.355 1.123,-3.313 0,-4.668l-4.939,-5.966l4.393,-3.477c0.829,-0.632 1.32,-1.613 1.383,-2.657c0.058,-1.045 -0.329,-2.064 -1.067,-2.802l-4.822,-4.822l4.734,-4.734c0.688,-0.687 1.072,-1.618 1.072,-2.589l0.087,-13.194c13.428,-6.852 21.978,-20.275 21.972,-35.453c0,-22.213 -18.072,-40.284 -40.285,-40.285Zm10.986,28.637c0,6.059 -4.925,10.985 -10.985,10.985c-6.059,0 -10.985,-4.926 -10.985,-10.985c0,-6.059 4.926,-10.985 10.985,-10.985c6.059,0 10.985,4.927 10.985,10.985Z" id="Forma-1" style="fill:none;stroke:#fefeff;stroke-width:22px;"/><path d="M344.39,177.203c-22.213,0 -40.283,18.07 -40.282,40.283c0,15.173 8.545,28.988 21.973,35.846l0.002,64.158c0,0.972 0.385,1.902 1.073,2.59l14.649,14.65c1.432,1.431 3.748,1.431 5.179,0l14.649,-14.649c0.688,-0.688 1.072,-1.618 1.072,-2.589l-0.003,-7.326c0,-1.118 -0.51,-2.175 -1.388,-2.871l-4.39,-3.479l4.938,-5.966c1.123,-1.355 1.123,-3.313 0,-4.668l-4.939,-5.966l4.393,-3.477c0.829,-0.632 1.32,-1.613 1.383,-2.657c0.058,-1.045 -0.329,-2.064 -1.067,-2.802l-4.822,-4.822l4.734,-4.734c0.688,-0.687 1.072,-1.618 1.072,-2.589l0.087,-13.194c13.428,-6.852 21.978,-20.275 21.972,-35.453c0,-22.213 -18.072,-40.284 -40.285,-40.285Zm10.986,28.637c0,6.059 -4.925,10.985 -10.985,10.985c-6.059,0 -10.985,-4.926 -10.985,-10.985c0,-6.059 4.926,-10.985 10.985,-10.985c6.059,0 10.985,4.927 10.985,10.985Z" style="fill:url(#_Linear3);fill-rule:nonzero;"/><path d="M345.394,181.389c2.623,0.245 3.557,5.215 -0.149,5.355c-1.806,0.009 -2.334,0.064 -3.485,0.193c-9.573,1.073 -18.437,6.895 -23.103,15.432c0,0 -1.11,1.544 -2.64,1.379c-1.755,-0.19 -3,-2.096 -2.063,-3.95c0.826,-1.512 1.067,-1.865 1.651,-2.739c6.396,-9.572 17.685,-15.53 29.31,-15.673c0.24,-0.002 0.239,-0.004 0.479,0.003Z" style="fill:#fff;fill-opacity:0.376471;fill-rule:nonzero;"/><path d="M312.737,211.148c0.459,0.029 0.608,0.08 0.874,0.186c2.234,0.882 1.426,4.556 1.824,7.928c0.228,1.937 0.663,3.848 1.279,5.701c0,0 0.239,2.7 -1.645,3.37c-1.471,0.523 -3.051,-0.461 -3.595,-2.15c-1.313,-4.154 -2.279,-8.654 -1.48,-12.857c0.242,-1.274 1.036,-2.212 2.743,-2.178Z" style="fill:#fff;fill-opacity:0.376471;fill-rule:nonzero;"/><path d="M368.065,236.944c1.835,0.209 1.809,0.729 2.181,1.465c0.501,0.994 0.462,2.029 -0.455,3.057c-1.122,1.175 -1.38,1.396 -2.086,2.026c-8.588,7.654 -20.96,10.648 -32.279,7.824c-1.678,-0.419 -3.132,-2.002 -2.394,-3.776c0.501,-1.206 1.647,-1.906 3.157,-1.564c1.75,0.461 2.271,0.542 3.415,0.716c9.506,1.441 19.586,-1.885 26.31,-8.927c0,0 1.84,-0.835 2.151,-0.821Z" style="fill:#003c90;fill-opacity:0.482353;fill-rule:nonzero;"/><path d="M376.433,213.609c2.401,0.157 2.704,3.386 2.589,6.046c-0.127,2.941 -0.643,5.864 -1.52,8.667c-0.534,1.71 -2.159,3.175 -3.911,2.375c-2.392,-1.092 -0.731,-4.848 -0.214,-8.273c0.298,-1.977 0.381,-3.982 0.261,-5.977c0,0 0.244,-2.899 2.795,-2.838Z" style="fill:#003c90;fill-opacity:0.482353;fill-rule:nonzero;"/><path d="M341.395,327.931l0,-71l-11,-1l0,59" id="Shape-2" style="fill:#70d1ff;fill-opacity:0.701961;"/><g id="_-_"><path d="M192.796,162.415c0,-2.928 -1.83,-5.856 -4.636,-7.076l-44.042,-19.764c-0.61,-0.244 -1.342,-0.366 -1.952,-0.366c-2.684,0 -5.368,2.074 -5.246,5.246c0,1.952 1.098,3.904 3.172,4.758l40.87,17.446l-40.87,17.324c-1.952,0.854 -3.05,2.684 -3.05,4.758c0,3.05 2.562,5.124 5.124,5.124c0.61,0 1.342,-0.122 1.952,-0.366l44.042,-19.642c2.806,-1.22 4.636,-4.148 4.636,-7.442Z" style="fill:#00c400;fill-rule:nonzero;"/><path d="M265.508,213.411c0,-2.806 -2.318,-5.124 -5.002,-5.124l-60.878,0c-2.806,0 -5.124,2.318 -5.124,5.124c0,2.928 2.318,5.246 5.124,5.246l60.878,0c2.684,0 5.002,-2.318 5.002,-5.246Z" style="fill:#00c400;fill-rule:nonzero;"/></g><defs><linearGradient gradientTransform="matrix(1.56881e-14,256.206,-256.206,1.56881e-14,34.8807,151.947)" gradientUnits="userSpaceOnUse" id="_Linear1" x1="0" x2="1" y1="0" y2="0"><stop offset="0" style="stop-color:#cce6ff;stop-opacity:1"/><stop offset="1" style="stop-color:#1d98ff;stop-opacity:1"/></linearGradient><linearGradient gradientTransform="matrix(1.86664e-14,304.845,-304.845,1.86664e-14,135.869,90.0659)" gradientUnits="userSpaceOnUse" id="_Linear2" x1="0" x2="1" y1="0" y2="0"><stop offset="0" style="stop-color:#fff;stop-opacity:1"/><stop offset="1" style="stop-color:#d0e4fc;stop-opacity:1"/></linearGradient><linearGradient gradientTransform="matrix(89.1084,167.851,-167.851,89.1084,330.259,247.55)" gradientUnits="userSpaceOnUse" id="_Linear3" x1="0" x2="1" y1="0" y2="0"><stop offset="0" style="stop-color:#0084ff;stop-opacity:1"/><stop offset="1" style="stop-color:#004fb8;stop-opacity:1"/></linearGradient></defs></svg>