<svg xmlns="http://www.w3.org/2000/svg" width="128" height="128" fill="none" viewBox="0 0 128 128"><path fill="url(#a)" d="M18 22.22c0-1.736 1.116-3.265 2.792-3.717C27.092 16.803 43.472 13 64 13s36.908 3.802 43.208 5.503c1.676.452 2.792 1.981 2.792 3.718V74c0 4-4.322 45-46 45S18 78 18 74z"/><path fill="#000" fill-opacity=".5" d="M18 22.22c0-1.736 1.116-3.265 2.792-3.717C27.092 16.803 43.472 13 64 13s36.908 3.802 43.208 5.503c1.676.452 2.792 1.981 2.792 3.718V74c0 4-4.322 45-46 45S18 78 18 74z"/><path fill="url(#b)" d="M18 18.22c0-1.736 1.116-3.265 2.792-3.717C27.092 12.803 43.472 9 64 9s36.908 3.802 43.208 5.502c1.676.453 2.792 1.982 2.792 3.719V70c0 4-4.322 45-46 45S18 74 18 70z"/><mask id="c" width="80" height="94" x="24" y="15" maskUnits="userSpaceOnUse" style="mask-type:alpha"><path fill="#d9d9d9" d="M97.45 90.97C92.06 100.182 82.38 109 64 109s-28.06-8.818-33.45-18.03c-2.773-4.739-4.43-9.652-5.389-13.65a50 50 0 0 1-.946-5.027c-.087-.656-.143-1.2-.176-1.61a16 16 0 0 1-.038-.636L24 70V19.867C30.93 18.11 45.775 15 64 15s33.07 3.11 40 4.867V70l-.001.047-.006.143q-.008.186-.032.494c-.033.41-.089.953-.176 1.609a50 50 0 0 1-.946 5.027c-.959 3.998-2.616 8.912-5.389 13.65"/></mask><g mask="url(#c)"><path fill="#f6d7af" stroke="#a28868" d="M23.5 14.5h21v95h-21z"/><path fill="#f0d0a6" stroke="#a28868" d="M43.5 14.5h21v95h-21z"/><path fill="#f1dabc" stroke="#a28868" d="M63.5 14.5h21v95h-21z"/><path fill="#f0d5b1" stroke="#a28868" d="M83.5 14.5h21v95h-21z"/><g filter="url(#d)"><path fill="#d9d9d9" fill-opacity=".01" d="M97.45 90.97C92.06 100.182 82.38 109 64 109s-28.06-8.818-33.45-18.03c-2.773-4.739-4.43-9.652-5.389-13.65a50 50 0 0 1-.946-5.027c-.087-.656-.143-1.2-.176-1.61a16 16 0 0 1-.038-.636L24 70V19.867C30.93 18.11 45.775 15 64 15s33.07 3.11 40 4.867V70l-.001.047-.006.143q-.008.186-.032.494c-.033.41-.089.953-.176 1.609a50 50 0 0 1-.946 5.027c-.959 3.998-2.616 8.912-5.389 13.65"/></g></g><g filter="url(#e)"><path fill="#2a293f" d="M116.399 52.41c0 1.068-.426 2.091-1.185 2.842l-11.359 11.25a4 4 0 0 1-5.643-.013L64.13 32.407a4 4 0 0 1-1.172-2.829v-5.353a4 4 0 0 1 1.16-2.816l2.968-2.993a4 4 0 0 1 5.668-.012l7.302 7.302a4 4 0 0 0 2.829 1.171h13.667a4 4 0 0 1 2.816 1.16l15.847 15.71a4 4 0 0 1 1.184 2.842z"/><path fill="url(#f)" d="M75.198 46.243a6 6 0 0 1 8.486 8.485L37.71 100.702a6 6 0 0 1-8.486-8.485z"/><path fill="#44425e" d="m103.855 60.819 11.314-11.314a4 4 0 0 0 0-5.657l-15.799-15.8a4 4 0 0 0-2.829-1.17H82.886a4 4 0 0 1-2.829-1.172l-7.313-7.314a4 4 0 0 0-5.657 0l-2.829 2.829a4 4 0 0 0 0 5.656L98.198 60.82a4 4 0 0 0 5.657 0"/></g><g filter="url(#g)"><path fill="url(#h)" d="m46.123 57.602.296-.288-5.657-5.657a8 8 0 0 1-11.314-11.314l-5.657-5.657c-6.248 6.249-6.248 16.38 0 22.628 6.151 6.15 16.064 6.247 22.332.288"/><path fill="url(#i)" d="m58.021 45.704-.288.296-5.657-5.657A8 8 0 1 0 40.762 29.03l-5.657-5.657c6.249-6.248 16.38-6.248 22.628 0 6.15 6.151 6.247 16.064.288 22.332"/><path fill="url(#j)" d="m49.247 54.485 33.941 33.941 5.657-5.657-33.94-33.94z"/><path fill="url(#k)" d="m97.33 102.569 2.829-2.829a4 4 0 0 0 0-5.657L88.845 82.77l-5.656 5.656-3.536 3.536-2.829-2.828-2.828 2.828a4 4 0 0 0 0 5.657l4.243 4.242 2.828-2.828 2.829 2.828-2.829 2.829 4.243 4.243a4 4 0 0 0 5.657 0l2.828-2.829-2.828-2.828 3.535-3.536z"/><path fill="url(#l)" d="m57.733 51.657-5.657 5.657a2 2 0 1 0 2.828 2.828l5.657-5.657a2 2 0 0 0-2.828-2.828"/><path fill="url(#m)" d="m63.39 57.314-5.657 5.657a2 2 0 0 0 2.828 2.828l5.657-5.657a2 2 0 1 0-2.829-2.828"/><path fill="#d9d9d9" d="m23.792 34.686 11.313-11.313 5.657 5.656-11.314 11.314z"/><path fill="url(#n)" d="m23.792 34.686 11.313-11.313 5.657 5.656-11.314 11.314z"/><path fill="#d9d9d9" d="M46.419 57.314 57.733 46l-5.657-5.657-11.314 11.314z"/><path fill="url(#o)" d="M46.419 57.314 57.733 46l-5.657-5.657-11.314 11.314z"/></g><rect width="4" height="6" x="62" y="108" fill="#606060" rx="2"/><rect width="4" height="4" x="62" y="108" fill="#b0b0b0" rx="2"/><rect width="4" height="6" x="105" y="15" fill="#606060" rx="2"/><rect width="4" height="4" x="105" y="15" fill="#b0b0b0" rx="2"/><rect width="4" height="6" x="19" y="15" fill="#606060" rx="2"/><rect width="4" height="4" x="19" y="15" fill="#b0b0b0" rx="2"/><defs><linearGradient id="a" x1="18" x2="110" y1="119" y2="119" gradientUnits="userSpaceOnUse"><stop stop-color="#9a9a9a"/><stop offset=".167" stop-color="#b9b9b9"/><stop offset=".333" stop-color="#c9c9c9"/><stop offset=".5" stop-color="#ededed"/><stop offset=".667" stop-color="silver"/><stop offset=".833" stop-color="#bebebe"/><stop offset="1" stop-color="#969696"/></linearGradient><linearGradient id="b" x1="64" x2="64" y1="9" y2="115" gradientUnits="userSpaceOnUse"><stop stop-color="#d0d0d0"/><stop offset="1" stop-color="#a0a0a0"/></linearGradient><linearGradient id="f" x1="61.638" x2="70.123" y1="59.803" y2="68.288" gradientUnits="userSpaceOnUse"><stop stop-color="#8a705d"/><stop offset=".25" stop-color="#bd9a7f"/><stop offset=".5" stop-color="#bd9a7f"/><stop offset=".75" stop-color="#8a705d"/><stop offset="1" stop-color="#614e3f"/></linearGradient><linearGradient id="j" x1="60.343" x2="66" y1="65.581" y2="59.924" gradientUnits="userSpaceOnUse"><stop stop-color="#765c31"/><stop offset=".25" stop-color="#a37f44"/><stop offset=".5" stop-color="#e0c26e"/><stop offset=".75" stop-color="#e0c26e"/><stop offset="1" stop-color="#a37f44"/></linearGradient><linearGradient id="k" x1="86.017" x2="103" y1="79.941" y2="97" gradientUnits="userSpaceOnUse"><stop stop-color="#a37f44"/><stop offset=".333" stop-color="#e0c26e"/><stop offset=".667" stop-color="#e0c26e"/><stop offset="1" stop-color="#a37f44"/></linearGradient><linearGradient id="l" x1="50.662" x2="59.147" y1="58.728" y2="50.243" gradientUnits="userSpaceOnUse"><stop stop-color="#8b8891"/><stop offset=".4" stop-color="#b1b1b1"/><stop offset=".6" stop-color="#b1b1b1"/><stop offset="1" stop-color="#8b8891"/></linearGradient><linearGradient id="m" x1="50.662" x2="59.147" y1="58.728" y2="50.243" gradientUnits="userSpaceOnUse"><stop stop-color="#8b8891"/><stop offset=".4" stop-color="#b1b1b1"/><stop offset=".6" stop-color="#b1b1b1"/><stop offset="1" stop-color="#8b8891"/></linearGradient><linearGradient id="n" x1="35.105" x2="41.116" y1="23.373" y2="29.383" gradientUnits="userSpaceOnUse"><stop stop-color="#a37f44"/><stop offset=".25" stop-color="#e0c26e"/><stop offset=".5" stop-color="#e0c26e"/><stop offset=".75" stop-color="#a37f44"/><stop offset="1" stop-color="#765c31"/></linearGradient><linearGradient id="o" x1="57.733" x2="51.722" y1="46" y2="39.99" gradientUnits="userSpaceOnUse"><stop stop-color="#a37f44"/><stop offset=".25" stop-color="#e0c26e"/><stop offset=".5" stop-color="#e0c26e"/><stop offset=".75" stop-color="#a37f44"/><stop offset="1" stop-color="#765c31"/></linearGradient><filter id="d" width="80" height="94" x="24" y="15" color-interpolation-filters="sRGB" filterUnits="userSpaceOnUse"><feFlood flood-opacity="0" result="BackgroundImageFix"/><feBlend in="SourceGraphic" in2="BackgroundImageFix" result="shape"/><feColorMatrix in="SourceAlpha" result="hardAlpha" values="0 0 0 0 0 0 0 0 0 0 0 0 0 0 0 0 0 0 127 0"/><feOffset dy="2"/><feComposite in2="hardAlpha" k2="-1" k3="1" operator="arithmetic"/><feColorMatrix values="0 0 0 0 0.596078 0 0 0 0 0.596078 0 0 0 0 0.596078 0 0 0 1 0"/><feBlend in2="shape" result="effect1_innerShadow_303_584"/></filter><filter id="e" width="88.932" height="87.239" x="27.467" y="17.221" color-interpolation-filters="sRGB" filterUnits="userSpaceOnUse"><feFlood flood-opacity="0" result="BackgroundImageFix"/><feColorMatrix in="SourceAlpha" result="hardAlpha" values="0 0 0 0 0 0 0 0 0 0 0 0 0 0 0 0 0 0 127 0"/><feOffset dy="2"/><feComposite in2="hardAlpha" operator="out"/><feColorMatrix values="0 0 0 0 0 0 0 0 0 0 0 0 0 0 0 0 0 0 0.25 0"/><feBlend in2="BackgroundImageFix" result="effect1_dropShadow_303_584"/><feBlend in="SourceGraphic" in2="effect1_dropShadow_303_584" result="shape"/></filter><filter id="g" width="82.225" height="95.418" x="19.105" y="18.686" color-interpolation-filters="sRGB" filterUnits="userSpaceOnUse"><feFlood flood-opacity="0" result="BackgroundImageFix"/><feColorMatrix in="SourceAlpha" result="hardAlpha" values="0 0 0 0 0 0 0 0 0 0 0 0 0 0 0 0 0 0 127 0"/><feOffset dy="4"/><feComposite in2="hardAlpha" operator="out"/><feColorMatrix values="0 0 0 0 0 0 0 0 0 0 0 0 0 0 0 0 0 0 0.25 0"/><feBlend in2="BackgroundImageFix" result="effect1_dropShadow_303_584"/><feBlend in="SourceGraphic" in2="effect1_dropShadow_303_584" result="shape"/></filter><radialGradient id="h" cx="0" cy="0" r="1" gradientTransform="rotate(135 7.026 30.685)scale(14 16.3582)" gradientUnits="userSpaceOnUse"><stop offset=".465" stop-color="#765c31"/><stop offset=".605" stop-color="#a37f44"/><stop offset=".737" stop-color="#e0c26e"/><stop offset=".858" stop-color="#e0c26e"/><stop offset="1" stop-color="#a37f44"/></radialGradient><radialGradient id="i" cx="0" cy="0" r="1" gradientTransform="rotate(-45 64.08 -41.104)scale(14 16.3582)" gradientUnits="userSpaceOnUse"><stop offset=".465" stop-color="#765c31"/><stop offset=".605" stop-color="#a37f44"/><stop offset=".737" stop-color="#e0c26e"/><stop offset=".858" stop-color="#e0c26e"/><stop offset="1" stop-color="#a37f44"/></radialGradient></defs></svg>